<svg width="82" height="50" viewBox="0 0 82 50" fill="none" xmlns="http://www.w3.org/2000/svg">
<path d="M25.0297 49.0632C24.414 48.4475 24.1061 47.7011 24.1061 46.8239C24.1061 45.9466 24.414 45.2001 25.0297 44.5844L31.1759 38.4382C22.518 37.2885 15.2616 35.0205 9.40699 31.6342C3.55233 28.2478 0.625 24.3697 0.625 19.9999C0.625 14.7746 4.52491 10.2808 12.3247 6.51847C20.1245 2.75616 29.6829 0.875 40.9999 0.875C52.3169 0.875 61.8753 2.75616 69.6751 6.51847C77.4749 10.2808 81.3748 14.7746 81.3748 19.9999C81.3748 23.3072 79.608 26.4253 76.0745 29.3539C72.5411 32.2826 67.8157 34.6078 61.8983 36.3296C60.8359 36.6455 59.9205 36.5093 59.1523 35.9209C58.384 35.3324 57.9999 34.4498 57.9999 33.2729C57.9999 32.6409 58.226 32.0197 58.6782 31.4094C59.1305 30.7992 59.6726 30.3933 60.3047 30.1917C65.0124 28.775 68.6385 27.09 71.1831 25.1367C73.7276 23.1833 74.9999 21.471 74.9999 19.9999C74.9999 17.6515 71.9718 14.9394 65.9155 11.8636C59.8593 8.78779 51.5541 7.24989 40.9999 7.24989C30.4457 7.24989 22.1405 8.78779 16.0843 11.8636C10.028 14.9394 6.99989 17.6515 6.99989 19.9999C6.99989 21.8634 9.0786 24.0156 13.236 26.4566C17.3934 28.8977 22.9375 30.6794 29.8683 31.8018L25.0297 26.9632C24.4413 26.3748 24.1402 25.6351 24.1265 24.7443C24.1129 23.8534 24.414 23.1001 25.0297 22.4844C25.6454 21.8688 26.3918 21.5609 27.2691 21.5609C28.1463 21.5609 28.8927 21.8688 29.5084 22.4844L40.1089 33.0849C40.5066 33.4827 40.7872 33.9022 40.9507 34.3435C41.1142 34.7849 41.1959 35.2617 41.1959 35.7739C41.1959 36.286 41.1142 36.7627 40.9507 37.2041C40.7872 37.6455 40.5066 38.065 40.1089 38.4627L29.5084 49.0632C28.9199 49.6517 28.1803 49.9527 27.2895 49.9663C26.3986 49.9799 25.6454 49.6789 25.0297 49.0632Z" fill="#1C1B1F"/>
<path d="M25.0297 49.0632C24.414 48.4475 24.1061 47.7011 24.1061 46.8239C24.1061 45.9466 24.414 45.2001 25.0297 44.5844L31.1759 38.4382C22.518 37.2885 15.2616 35.0205 9.40699 31.6342C3.55233 28.2478 0.625 24.3697 0.625 19.9999C0.625 14.7746 4.52491 10.2808 12.3247 6.51847C20.1245 2.75616 29.6829 0.875 40.9999 0.875C52.3169 0.875 61.8753 2.75616 69.6751 6.51847C77.4749 10.2808 81.3748 14.7746 81.3748 19.9999C81.3748 23.3072 79.608 26.4253 76.0745 29.3539C72.5411 32.2826 67.8157 34.6078 61.8983 36.3296C60.8359 36.6455 59.9205 36.5093 59.1523 35.9209C58.384 35.3324 57.9999 34.4498 57.9999 33.2729C57.9999 32.6409 58.226 32.0197 58.6782 31.4094C59.1305 30.7992 59.6726 30.3933 60.3047 30.1917C65.0124 28.775 68.6385 27.09 71.1831 25.1367C73.7276 23.1833 74.9999 21.471 74.9999 19.9999C74.9999 17.6515 71.9718 14.9394 65.9155 11.8636C59.8593 8.78779 51.5541 7.24989 40.9999 7.24989C30.4457 7.24989 22.1405 8.78779 16.0843 11.8636C10.028 14.9394 6.99989 17.6515 6.99989 19.9999C6.99989 21.8634 9.0786 24.0156 13.236 26.4566C17.3934 28.8977 22.9375 30.6794 29.8683 31.8018L25.0297 26.9632C24.4413 26.3748 24.1402 25.6351 24.1265 24.7443C24.1129 23.8534 24.414 23.1001 25.0297 22.4844C25.6454 21.8688 26.3918 21.5609 27.2691 21.5609C28.1463 21.5609 28.8927 21.8688 29.5084 22.4844L40.1089 33.0849C40.5066 33.4827 40.7872 33.9022 40.9507 34.3435C41.1142 34.7849 41.1959 35.2617 41.1959 35.7739C41.1959 36.286 41.1142 36.7627 40.9507 37.2041C40.7872 37.6455 40.5066 38.065 40.1089 38.4627L29.5084 49.0632C28.9199 49.6517 28.1803 49.9527 27.2895 49.9663C26.3986 49.9799 25.6454 49.6789 25.0297 49.0632Z" fill="url(#paint0_linear_204_442)"/>
<defs>
<linearGradient id="paint0_linear_204_442" x1="-50.5139" y1="0.875004" x2="73.8714" y2="64.8564" gradientUnits="userSpaceOnUse">
<stop stop-color="#FAA347"/>
<stop offset="1" stop-color="#EF2C3A"/>
</linearGradient>
</defs>
</svg>
