<svg width="90" height="64" viewBox="0 0 90 64" fill="none" xmlns="http://www.w3.org/2000/svg">
<path d="M57.3593 63.8748C48.456 63.8748 40.9147 60.7852 34.7355 54.606C28.5564 48.4268 25.4668 40.8856 25.4668 31.9823C25.4668 23.1454 28.5564 15.6266 34.7355 9.42591C40.9147 3.2253 48.456 0.125 57.3593 0.125C66.1962 0.125 73.715 3.2253 79.9156 9.42591C86.1162 15.6266 89.2165 23.1454 89.2165 31.9823C89.2165 40.8856 86.1162 48.4268 79.9156 54.606C73.715 60.7852 66.1962 63.8748 57.3593 63.8748ZM57.3417 57.4999C64.425 57.4999 70.4459 55.0207 75.4042 50.0624C80.3625 45.1041 82.8417 39.0832 82.8417 31.9999C82.8417 24.9166 80.3625 18.8957 75.4042 13.9374C70.4459 8.97906 64.425 6.49989 57.3417 6.49989C50.2584 6.49989 44.2375 8.97906 39.2792 13.9374C34.3209 18.8957 31.8417 24.9166 31.8417 31.9999C31.8417 39.0832 34.3209 45.1041 39.2792 50.0624C44.2375 55.0207 50.2584 57.4999 57.3417 57.4999ZM60.5291 30.7494V18.8413C60.5291 17.9381 60.2235 17.1811 59.6123 16.5702C59.0011 15.9592 58.2438 15.6538 57.3402 15.6538C56.4367 15.6538 55.6798 15.9592 55.0695 16.5702C54.4593 17.1811 54.1542 17.9381 54.1542 18.8413V31.82C54.1542 32.3204 54.2577 32.8051 54.4648 33.2741C54.6718 33.7432 54.956 34.1591 55.3173 34.5217L65.1798 44.423C65.8117 45.0822 66.5622 45.4118 67.4313 45.4118C68.3004 45.4118 69.0645 45.0822 69.7239 44.423C70.3831 43.7636 70.7127 43.0063 70.7127 42.1509C70.7127 41.2955 70.3831 40.5381 69.7239 39.8789L60.5291 30.7494ZM8.22157 18.1873C7.31845 18.1873 6.56145 17.8817 5.95059 17.2706C5.33965 16.6593 5.03418 15.902 5.03418 14.9985C5.03418 14.095 5.33965 13.3381 5.95059 12.7278C6.56145 12.1176 7.31845 11.8125 8.22157 11.8125H18.0294C18.9325 11.8125 19.6895 12.1181 20.3004 12.7292C20.9113 13.3404 21.2168 14.0978 21.2168 15.0013C21.2168 15.9048 20.9113 16.6617 20.3004 17.2719C19.6895 17.8822 18.9325 18.1873 18.0294 18.1873H8.22157ZM3.97157 35.1873C3.06845 35.1873 2.31145 34.8817 1.70059 34.2706C1.08965 33.6593 0.78418 32.902 0.78418 31.9985C0.78418 31.095 1.08965 30.3381 1.70059 29.7278C2.31145 29.1176 3.06845 28.8125 3.97157 28.8125H18.0294C18.9325 28.8125 19.6895 29.1181 20.3004 29.7292C20.9113 30.3404 21.2168 31.0978 21.2168 32.0013C21.2168 32.9048 20.9113 33.6617 20.3004 34.2719C19.6895 34.8822 18.9325 35.1873 18.0294 35.1873H3.97157ZM8.22157 52.1873C7.31845 52.1873 6.56145 51.8817 5.95059 51.2706C5.33965 50.6593 5.03418 49.902 5.03418 48.9985C5.03418 48.095 5.33965 47.3381 5.95059 46.7278C6.56145 46.1176 7.31845 45.8125 8.22157 45.8125H18.0294C18.9325 45.8125 19.6895 46.1181 20.3004 46.7292C20.9113 47.3405 21.2168 48.0978 21.2168 49.0013C21.2168 49.9048 20.9113 50.6617 20.3004 51.2719C19.6895 51.8822 18.9325 52.1873 18.0294 52.1873H8.22157Z" fill="#1C1B1F"/>
<path d="M57.3593 63.8748C48.456 63.8748 40.9147 60.7852 34.7355 54.606C28.5564 48.4268 25.4668 40.8856 25.4668 31.9823C25.4668 23.1454 28.5564 15.6266 34.7355 9.42591C40.9147 3.2253 48.456 0.125 57.3593 0.125C66.1962 0.125 73.715 3.2253 79.9156 9.42591C86.1162 15.6266 89.2165 23.1454 89.2165 31.9823C89.2165 40.8856 86.1162 48.4268 79.9156 54.606C73.715 60.7852 66.1962 63.8748 57.3593 63.8748ZM57.3417 57.4999C64.425 57.4999 70.4459 55.0207 75.4042 50.0624C80.3625 45.1041 82.8417 39.0832 82.8417 31.9999C82.8417 24.9166 80.3625 18.8957 75.4042 13.9374C70.4459 8.97906 64.425 6.49989 57.3417 6.49989C50.2584 6.49989 44.2375 8.97906 39.2792 13.9374C34.3209 18.8957 31.8417 24.9166 31.8417 31.9999C31.8417 39.0832 34.3209 45.1041 39.2792 50.0624C44.2375 55.0207 50.2584 57.4999 57.3417 57.4999ZM60.5291 30.7494V18.8413C60.5291 17.9381 60.2235 17.1811 59.6123 16.5702C59.0011 15.9592 58.2438 15.6538 57.3402 15.6538C56.4367 15.6538 55.6798 15.9592 55.0695 16.5702C54.4593 17.1811 54.1542 17.9381 54.1542 18.8413V31.82C54.1542 32.3204 54.2577 32.8051 54.4648 33.2741C54.6718 33.7432 54.956 34.1591 55.3173 34.5217L65.1798 44.423C65.8117 45.0822 66.5622 45.4118 67.4313 45.4118C68.3004 45.4118 69.0645 45.0822 69.7239 44.423C70.3831 43.7636 70.7127 43.0063 70.7127 42.1509C70.7127 41.2955 70.3831 40.5381 69.7239 39.8789L60.5291 30.7494ZM8.22157 18.1873C7.31845 18.1873 6.56145 17.8817 5.95059 17.2706C5.33965 16.6593 5.03418 15.902 5.03418 14.9985C5.03418 14.095 5.33965 13.3381 5.95059 12.7278C6.56145 12.1176 7.31845 11.8125 8.22157 11.8125H18.0294C18.9325 11.8125 19.6895 12.1181 20.3004 12.7292C20.9113 13.3404 21.2168 14.0978 21.2168 15.0013C21.2168 15.9048 20.9113 16.6617 20.3004 17.2719C19.6895 17.8822 18.9325 18.1873 18.0294 18.1873H8.22157ZM3.97157 35.1873C3.06845 35.1873 2.31145 34.8817 1.70059 34.2706C1.08965 33.6593 0.78418 32.902 0.78418 31.9985C0.78418 31.095 1.08965 30.3381 1.70059 29.7278C2.31145 29.1176 3.06845 28.8125 3.97157 28.8125H18.0294C18.9325 28.8125 19.6895 29.1181 20.3004 29.7292C20.9113 30.3404 21.2168 31.0978 21.2168 32.0013C21.2168 32.9048 20.9113 33.6617 20.3004 34.2719C19.6895 34.8822 18.9325 35.1873 18.0294 35.1873H3.97157ZM8.22157 52.1873C7.31845 52.1873 6.56145 51.8817 5.95059 51.2706C5.33965 50.6593 5.03418 49.902 5.03418 48.9985C5.03418 48.095 5.33965 47.3381 5.95059 46.7278C6.56145 46.1176 7.31845 45.8125 8.22157 45.8125H18.0294C18.9325 45.8125 19.6895 46.1181 20.3004 46.7292C20.9113 47.3405 21.2168 48.0978 21.2168 49.0013C21.2168 49.9048 20.9113 50.6617 20.3004 51.2719C19.6895 51.8822 18.9325 52.1873 18.0294 52.1873H8.22157Z" fill="url(#paint0_linear_204_507)"/>
<defs>
<linearGradient id="paint0_linear_204_507" x1="-55.22" y1="0.125005" x2="89.7593" y2="63.0163" gradientUnits="userSpaceOnUse">
<stop stop-color="#FAA347"/>
<stop offset="1" stop-color="#EF2C3A"/>
</linearGradient>
</defs>
</svg>
