<svg width="64" height="76" viewBox="0 0 64 76" fill="none" xmlns="http://www.w3.org/2000/svg">
<path d="M4.32208 75.7358C3.34621 75.7358 2.50691 75.3696 1.80419 74.637C1.1014 73.9044 0.75 73.031 0.75 72.0167V4.9935C0.75 3.57871 1.20998 2.39274 2.12995 1.4356C3.04999 0.478534 4.18998 0 5.54993 0H33.45C34.6494 0 35.6896 0.360948 36.5708 1.08284C37.4518 1.80474 38.0032 2.75286 38.225 3.92722L39.2834 9.24158H58.7834C60.1434 9.24158 61.2834 9.7168 62.2034 10.6673C63.1234 11.6178 63.5834 12.7956 63.5834 14.2006V46.8858C63.5834 48.2909 63.1234 49.4684 62.2034 50.4182C61.2834 51.3681 60.1434 51.843 58.7834 51.843H39.6584C38.459 51.843 37.4187 51.4715 36.5376 50.7285C35.6565 49.9854 35.1051 49.0103 34.8834 47.8031L33.9333 42.6014H7.9V72.0167C7.9 73.031 7.54763 73.9044 6.84289 74.637C6.13814 75.3696 5.29787 75.7358 4.32208 75.7358ZM41.7 44.4047H56.4333V16.6799H33.2697L31.5049 7.43834H7.9V35.1631H39.9327L41.7 44.4047Z" fill="url(#paint0_linear_207_221)"/>
<defs>
<linearGradient id="paint0_linear_207_221" x1="-15.1889" y1="75.6057" x2="88.644" y2="75.6057" gradientUnits="userSpaceOnUse">
<stop stop-color="#FAA347"/>
<stop offset="1" stop-color="#EF2C3A"/>
</linearGradient>
</defs>
</svg>
