<svg width="80" height="82" viewBox="0 0 80 82" fill="none" xmlns="http://www.w3.org/2000/svg">
<path d="M32.9999 81.8108C32.5313 81.8108 32.0764 81.7468 31.635 81.6188C31.1936 81.4907 30.7959 81.2633 30.4417 80.9364C20.2581 71.8752 12.649 63.5086 7.61443 55.8368C2.57981 48.1651 0.0625 41.0028 0.0625 34.3499C0.0625 24.0519 3.37803 15.8461 10.0091 9.73262C16.6402 3.61921 24.3038 0.5625 32.9999 0.5625C42.1047 0.5625 49.9727 3.79632 56.6038 10.264C63.2348 16.7316 66.346 25.6184 65.9373 36.9246L73.7264 29.1356C74.3149 28.5471 75.0477 28.2528 75.9249 28.2528C76.8021 28.2528 77.5485 28.5471 78.1642 29.1356C78.7527 29.7513 79.0469 30.4977 79.0469 31.3749C79.0469 32.2521 78.7527 32.9849 78.1642 33.5734L65.4388 46.2989C65.041 46.6966 64.6215 46.9772 64.1801 47.1407C63.7388 47.3041 63.2621 47.3858 62.7499 47.3858C62.2377 47.3858 61.761 47.3041 61.3197 47.1407C60.8783 46.9772 60.4588 46.6966 60.061 46.2989L47.3356 33.5734C46.7471 32.9849 46.4528 32.2521 46.4528 31.3749C46.4528 30.4977 46.7607 29.7513 47.3764 29.1356C47.9648 28.5471 48.6977 28.2528 49.5749 28.2528C50.4521 28.2528 51.1985 28.5471 51.8142 29.1356L59.5625 36.9246C59.9711 27.9232 57.6187 20.675 52.5051 15.1799C47.3914 9.68484 40.8897 6.93729 32.9999 6.93729C25.546 6.93729 19.2555 9.49412 14.1282 14.6078C9.00092 19.7214 6.43729 26.3021 6.43729 34.3499C6.43729 39.5153 8.60861 45.4612 12.9513 52.1877C17.2939 58.9142 23.9768 66.4075 32.9999 74.6678C34.4166 73.3928 35.9109 71.9829 37.4829 70.4381C39.0548 68.8934 40.4429 67.5189 41.6471 66.3148C41.1567 65.5248 40.7916 64.6884 40.5519 63.8057C40.3122 62.923 40.1923 62.0294 40.1923 61.1249C40.1923 58.3951 41.1444 56.0781 43.0487 54.1737C44.9531 52.2694 47.2701 51.3173 49.9999 51.3173C52.7297 51.3173 55.0467 52.2694 56.9511 54.1737C58.8554 56.0781 59.8075 58.3951 59.8075 61.1249C59.8075 63.8547 58.8554 66.1717 56.9511 68.0761C55.0467 69.9804 52.7297 70.9325 49.9999 70.9325C49.3788 70.9325 48.7767 70.8835 48.1936 70.7854C47.6106 70.6873 47.0575 70.5266 46.5344 70.3032C44.9053 72.0196 43.1658 73.7604 41.316 75.5258C39.4662 77.2912 37.5332 79.0811 35.5172 80.8955C35.1903 81.2224 34.8102 81.4566 34.377 81.5983C33.9439 81.74 33.4848 81.8108 32.9999 81.8108Z" fill="#1C1B1F"/>
<path d="M32.9999 81.8108C32.5313 81.8108 32.0764 81.7468 31.635 81.6188C31.1936 81.4907 30.7959 81.2633 30.4417 80.9364C20.2581 71.8752 12.649 63.5086 7.61443 55.8368C2.57981 48.1651 0.0625 41.0028 0.0625 34.3499C0.0625 24.0519 3.37803 15.8461 10.0091 9.73262C16.6402 3.61921 24.3038 0.5625 32.9999 0.5625C42.1047 0.5625 49.9727 3.79632 56.6038 10.264C63.2348 16.7316 66.346 25.6184 65.9373 36.9246L73.7264 29.1356C74.3149 28.5471 75.0477 28.2528 75.9249 28.2528C76.8021 28.2528 77.5485 28.5471 78.1642 29.1356C78.7527 29.7513 79.0469 30.4977 79.0469 31.3749C79.0469 32.2521 78.7527 32.9849 78.1642 33.5734L65.4388 46.2989C65.041 46.6966 64.6215 46.9772 64.1801 47.1407C63.7388 47.3041 63.2621 47.3858 62.7499 47.3858C62.2377 47.3858 61.761 47.3041 61.3197 47.1407C60.8783 46.9772 60.4588 46.6966 60.061 46.2989L47.3356 33.5734C46.7471 32.9849 46.4528 32.2521 46.4528 31.3749C46.4528 30.4977 46.7607 29.7513 47.3764 29.1356C47.9648 28.5471 48.6977 28.2528 49.5749 28.2528C50.4521 28.2528 51.1985 28.5471 51.8142 29.1356L59.5625 36.9246C59.9711 27.9232 57.6187 20.675 52.5051 15.1799C47.3914 9.68484 40.8897 6.93729 32.9999 6.93729C25.546 6.93729 19.2555 9.49412 14.1282 14.6078C9.00092 19.7214 6.43729 26.3021 6.43729 34.3499C6.43729 39.5153 8.60861 45.4612 12.9513 52.1877C17.2939 58.9142 23.9768 66.4075 32.9999 74.6678C34.4166 73.3928 35.9109 71.9829 37.4829 70.4381C39.0548 68.8934 40.4429 67.5189 41.6471 66.3148C41.1567 65.5248 40.7916 64.6884 40.5519 63.8057C40.3122 62.923 40.1923 62.0294 40.1923 61.1249C40.1923 58.3951 41.1444 56.0781 43.0487 54.1737C44.9531 52.2694 47.2701 51.3173 49.9999 51.3173C52.7297 51.3173 55.0467 52.2694 56.9511 54.1737C58.8554 56.0781 59.8075 58.3951 59.8075 61.1249C59.8075 63.8547 58.8554 66.1717 56.9511 68.0761C55.0467 69.9804 52.7297 70.9325 49.9999 70.9325C49.3788 70.9325 48.7767 70.8835 48.1936 70.7854C47.6106 70.6873 47.0575 70.5266 46.5344 70.3032C44.9053 72.0196 43.1658 73.7604 41.316 75.5258C39.4662 77.2912 37.5332 79.0811 35.5172 80.8955C35.1903 81.2224 34.8102 81.4566 34.377 81.5983C33.9439 81.74 33.4848 81.8108 32.9999 81.8108Z" fill="url(#paint0_linear_204_498)"/>
<defs>
<linearGradient id="paint0_linear_204_498" x1="-49.9584" y1="0.562506" x2="90.8826" y2="43.3788" gradientUnits="userSpaceOnUse">
<stop stop-color="#FAA347"/>
<stop offset="1" stop-color="#EF2C3A"/>
</linearGradient>
</defs>
</svg>
