<svg width="69" height="72" viewBox="0 0 69 72" fill="none" xmlns="http://www.w3.org/2000/svg">
<path d="M27.3799 42.6359L2.73796 32.2116C1.76811 31.8092 1.06934 31.2197 0.641644 30.4431C0.213881 29.6665 0 28.8219 0 27.9093C0 26.9966 0.241117 26.1379 0.72335 25.333C1.20551 24.528 1.90432 23.9612 2.81977 23.6325L62.8347 0.30104C63.6956 -0.0276899 64.4857 -0.0871951 65.2049 0.122526C65.9242 0.332247 66.5916 0.72052 67.2073 1.28734C67.8231 1.85424 68.214 2.53023 68.3802 3.31532C68.5464 4.10041 68.4714 4.94073 68.1554 5.83629L45.614 68.1015C45.2272 69.1445 44.6741 69.8941 43.9549 70.3504C43.2357 70.8067 42.4184 71.0349 41.503 71.0349C40.5876 71.0349 39.7839 70.7883 39.0919 70.2952C38.3999 69.802 37.8523 69.0708 37.4491 68.1015L27.3799 42.6359ZM41.3232 58.859L59.3039 9.42446L11.6222 27.9602L32.8722 36.9731L41.3232 58.859Z" fill="url(#paint0_linear_207_61)"/>
<defs>
<linearGradient id="paint0_linear_207_61" x1="-17.3677" y1="70.9128" x2="95.7734" y2="70.9128" gradientUnits="userSpaceOnUse">
<stop stop-color="#FAA347"/>
<stop offset="1" stop-color="#EF2C3A"/>
</linearGradient>
</defs>
</svg>
