<svg width="104" height="24" viewBox="0 0 104 24" fill="none" xmlns="http://www.w3.org/2000/svg">
<path d="M2 10.5C1.17157 10.5 0.5 11.1716 0.5 12C0.5 12.8284 1.17157 13.5 2 13.5L2 10.5ZM103.061 13.0607C103.646 12.4749 103.646 11.5251 103.061 10.9393L93.5147 1.39339C92.9289 0.807604 91.9792 0.807604 91.3934 1.39339C90.8076 1.97918 90.8076 2.92892 91.3934 3.51471L99.8787 12L91.3934 20.4853C90.8076 21.0711 90.8076 22.0208 91.3934 22.6066C91.9792 23.1924 92.9289 23.1924 93.5147 22.6066L103.061 13.0607ZM2 13.5L102 13.5L102 10.5L2 10.5L2 13.5Z" fill="url(#paint0_linear_197_242)"/>
<defs>
<linearGradient id="paint0_linear_197_242" x1="2" y1="12" x2="102" y2="12" gradientUnits="userSpaceOnUse">
<stop stop-color="#FAA347"/>
<stop offset="1" stop-color="#EF2C3A"/>
</linearGradient>
</defs>
</svg>
