<svg width="90" height="65" viewBox="0 0 90 65" fill="none" xmlns="http://www.w3.org/2000/svg">
<path d="M45.0182 50.863C50.0455 50.863 54.3122 49.0325 57.8185 45.3715C61.3247 41.7106 63.0779 37.2651 63.0779 32.0351C63.0779 26.8051 61.3183 22.3663 57.7992 18.7186C54.2802 15.071 50.007 13.2472 44.9798 13.2472C39.9525 13.2472 35.6857 15.0776 32.1795 18.7386C28.6732 22.3996 26.9201 26.8451 26.9201 32.0751C26.9201 37.3051 28.6797 41.7439 32.1987 45.3915C35.7178 49.0392 39.991 50.863 45.0182 50.863ZM44.9865 44.2139C41.7365 44.2139 38.9782 43.0305 36.7115 40.6638C34.4448 38.2971 33.3115 35.4232 33.3115 32.042C33.3115 28.661 34.449 25.7914 36.724 23.4334C38.999 21.0753 41.7615 19.8963 45.0115 19.8963C48.2615 19.8963 51.0198 21.0796 53.2865 23.4464C55.5532 25.8131 56.6865 28.687 56.6865 32.0681C56.6865 35.4492 55.549 38.3187 53.274 40.6768C50.999 43.0349 48.2365 44.2139 44.9865 44.2139ZM44.999 64.1102C35.8179 64.1102 27.337 61.7096 19.5561 56.9084C11.7754 52.1072 5.6919 45.5658 1.30569 37.2843C0.935229 36.5303 0.661458 35.7106 0.484375 34.8251C0.307292 33.9396 0.21875 33.0246 0.21875 32.0801C0.21875 31.1355 0.307292 30.2122 0.484375 29.3101C0.661458 28.4079 0.935229 27.5798 1.30569 26.8259C5.6919 18.5443 11.7754 12.003 19.5561 7.20178C27.337 2.40059 35.8179 0 44.999 0C54.18 0 62.661 2.40059 70.4418 7.20178C78.2226 12.003 84.3061 18.5443 88.6923 26.8259C89.0628 27.5798 89.3366 28.3996 89.5137 29.2851C89.6908 30.1705 89.7793 31.0855 89.7793 32.0301C89.7793 32.9747 89.6908 33.898 89.5137 34.8001C89.3366 35.7023 89.0628 36.5303 88.6923 37.2843C84.3061 45.5658 78.2226 52.1072 70.4418 56.9084C62.661 61.7096 54.18 64.1102 44.999 64.1102ZM44.999 56.8149C53.1448 56.8149 60.6486 54.5827 67.5104 50.1185C74.3722 45.6542 79.6184 39.633 83.249 32.0551C79.6184 24.4771 74.3722 18.456 67.5104 13.9917C60.6486 9.52743 53.1448 7.29529 44.999 7.29529C36.8531 7.29529 29.3493 9.52743 22.4876 13.9917C15.6257 18.456 10.3795 24.4771 6.74898 32.0551C10.3795 39.633 15.6257 45.6542 22.4876 50.1185C29.3493 54.5827 36.8531 56.8149 44.999 56.8149Z" fill="url(#paint0_linear_207_18)"/>
<defs>
<linearGradient id="paint0_linear_207_18" x1="-22.5" y1="64" x2="125.5" y2="64" gradientUnits="userSpaceOnUse">
<stop stop-color="#FAA347"/>
<stop offset="1" stop-color="#EF2C3A"/>
</linearGradient>
</defs>
</svg>
